<svg xmlns="http://www.w3.org/2000/svg" viewBox="0 0 772.17 233.17"><defs><style>.cls-1{fill:#fff}.cls-2{fill:#4d4d4f}.cls-3{fill:#4e4e50}</style></defs><g id="Layer_2" data-name="Layer 2"><g id="Layer_1-2" data-name="Layer 1"><g id="JqBVV5.tif"><path class="cls-1" d="M682.88 0v.31h-17.09l-.08-.31zm89.28 92.37v11.55a104.17 104.17 0 01-5.11 25.62 10.66 10.66 0 01-1.73 3.88c-.89-3.36-1.73-6.5-2.55-9.64-.5-1.91-.93-3.84-1.42-5.75-.59-2.32-1.28-2.91-3.61-3.2h-.31c-3.71-.48-4.72-1.59-5-5.33-.33-5.3-.27-10.6-.39-15.9-.04-5.83-.6-11.6-3.04-16.95-4-9-11-14.41-20.35-16.69A68 68 0 00681.31 65c-.66.32-1.44 1.18-2 .63s0-1.48.19-2.21c1-3.24 1-3.27-2.42-3.19q-10.21.21-20.42.5c-3 .09-3.53.5-4.29 3.45Q647.16 84 642 103.88c-.25.93-.55 1.85-.84 2.83A2.4 2.4 0 01640 105l-14-40.54c-.92-2.68-1.7-3.11-4.52-2.86-7.67.67-15.34 1.28-23 1.91-2.16.18-2.15-.08-1.31 2.14q11.34 30.22 22.72 60.42c1.82 4.82 3.65 9.63 5.44 14.45a9.83 9.83 0 01-9.14 13.59 29.78 29.78 0 01-9.81-1.58c-2.08-.65-2.47-.34-2.46 1.87v11.54a14.66 14.66 0 01-3.23-3c-11.08-12.91-18.83-27.55-22.22-44.26-4.56-22.44-2.26-44.21 8.38-64.61 14.59-28 37.42-45.51 68.44-52 3.46-.73 7-.86 10.46-1.68h17.09c18.56 2.1 35.66 8.01 50.55 19.51 19.12 14.76 31.49 33.86 36.7 57.51a127.81 127.81 0 012.07 14.96z"/><path class="cls-1" d="M676.65 73.87c1.77 3.6 3.32 6.77 4.89 9.93s1.56 3.14 4.45 1.28c5.7-3.68 11.76-6.45 18.58-7.2a29.05 29.05 0 0110.39.44c5.39 1.35 8.31 5.71 7.57 12.06-.13 1.1-.76.56-1.22.41A41.94 41.94 0 00705 88.64c-8 .51-15.77 2-22.3 7-8.7 6.59-13.11 15.36-10.58 26.36s10 17.62 21 19.92c13.78 2.87 24.74-2.19 33.65-12.58.31-.36.48-1.1 1.11-.9s.64.8.74 1.3c1.69 9.13 8.51 11.75 15 11.91 4.75.11 9.43-.71 14.14-1.09 1.19-.09 2.38-.27 3.57-.38.34 0 .78-.24 1 .12s0 .82-.24 1.15c-.39.55-.85 1-1.26 1.58-9.11 11.66-19.36 22.29-29.48 33q-26 27.6-51.84 55.31c-2.15 2.3-2.59 2.32-4.92.18l-55.11-50.68c-.49-.44-1-.86-1.72-1.49 2.2-.19 4.16-.23 6.07-.54 14.6-2.39 25-10.12 29.92-24.31 3.08-8.89 5.25-18.06 7.79-27.12q7-25.06 14-50.16c.35-.9.66-1.88 1.11-3.35z"/><path class="cls-2" d="M134.77 56.75c8.26.07 17.9 2.1 26.07 8.5 14.73 11.53 21.55 29.16 15 49.65-5.5 17.33-17.7 26.42-35.29 28.93-10 1.43-19.76.68-28.91-3.91-12.76-6.4-21.85-16.23-23.27-30.71-1.84-18.71 3.49-35.07 20.06-46.07 6.8-4.48 14.94-6.41 26.34-6.39zm16.65 43.72a22.55 22.55 0 00-4.67-15.06c-7.18-9.37-21.71-9-28.15.91-5.94 9.13-6.08 18.65-.62 28 6 10.32 21 11.17 28.4 1.8a23.14 23.14 0 005.04-15.65z"/><path class="cls-3" d="M464.74 130.23c-1.2 1.15-2.27 2.19-3.37 3.21-11 10.32-23.8 13.89-38.24 8.79a26 26 0 01-10.41-42.37c4.86-5.15 11.15-7.7 17.86-9.33C440.19 88.18 449.67 89 459 92c1.36.44 1.79.16 1.66-1.2v-.31c.34-10.12-4.66-15.44-14.82-15.88-9.25-.39-17.48 2.59-25.18 7.41-3 1.89-3 1.89-4.55-1.34q-2.58-5.42-5.15-10.84c-.92-1.93-.82-2.33 1-3.41a65.73 65.73 0 0140.4-9.43 48.94 48.94 0 0113.69 2.87c12.29 4.71 19 13.67 20.22 26.73.84 8.73.22 17.46.34 26.19a35.57 35.57 0 00.24 3.73 4.4 4.4 0 003.8 4.16c1.13.2 1.43.78 1.43 1.81v18.72c0 1-.31 1.68-1.4 1.91a38.15 38.15 0 01-15.78.32c-5.34-1.12-8.42-4.44-9.5-9.71-.24-1.15-.4-2.27-.66-3.5zm-18.23-26.54a20.42 20.42 0 00-10.79 2.57c-4.15 2.37-6.21 6.21-5.61 10.44a10.69 10.69 0 008.57 8.66c7.66 1.47 14.28-.76 19.89-6.07A7.15 7.15 0 00461 113a32.69 32.69 0 01-.23-4.19 3 3 0 00-2.4-3.2 46 46 0 00-11.86-1.92zM0 142.94v-84.6h14.34c2.29 0 4.58-.06 6.87 0 1.76 0 2.25.53 2.16 2.28-.16 3.22-.15 6.44 0 9.66 0 .34-.17.79.25 1s.61-.29.8-.55c6.17-8.33 14.81-12.14 24.76-13.48a38 38 0 0114.87.5 20.41 20.41 0 0114 11.86 41.17 41.17 0 013.32 17.17v49.31c0 1.51.08 3 0 4.52 0 1.93-.53 2.39-2.44 2.39H57.91c-2 0-2.34-.34-2.34-2.37V94.44a21.72 21.72 0 00-1.25-7.66C52.18 81 47 78.37 41.17 80c-7.38 2.06-12.11 7-15 13.9a6.23 6.23 0 00-.28 2.46v43.22c0 3-.29 3.33-3.41 3.34zm327.76-86.39c15.17.3 27.78 6.26 36.44 19.61 1.92 3 1.81 3.06-1.58 4.06q-10.17 3-20.3 6.11a2 2 0 01-2.57-.71c-4.1-5.66-9.67-7.77-16.51-6.62s-11.63 4.85-14 11.41a29.9 29.9 0 00-1.48 15.51c1.5 8.51 8.3 15.53 16.14 16.5 6.41.8 11.64-1.55 15.65-6.52a2.77 2.77 0 013.46-1.11c6.83 2.17 13.7 4.24 20.56 6.34 2.37.72 2.5 1.05 1.2 3.24a38.57 38.57 0 01-22.07 17.56 51.77 51.77 0 01-35.17-1c-13.56-5.19-21.8-15.44-25.22-29.27-3.78-15.3-.8-29.36 9.91-41.28C299 62.9 307.7 59 317.54 57.41a83.86 83.86 0 0110.22-.86zm205.15 87.91c-11.92-.14-24.84-3.08-36-11.62-2.23-1.69-2.29-2.21-.84-4.65 2.17-3.67 4.3-7.36 6.43-11.06 1.15-2 1.54-2.12 3.51-.83 6.22 4.06 12.72 7.49 20.08 9 4.27.88 8.54 1.33 12.77-.19 3-1.07 4.41-3.12 4.34-6.12a5.48 5.48 0 00-2.92-4.67 29.13 29.13 0 00-7.75-3.24 205.87 205.87 0 01-22.07-7.18c-4.17-1.69-7.9-4-10.54-7.74-3.27-4.63-3.91-9.81-2.78-15.2 2.42-11.5 9.13-19.28 20.6-22.3 12.16-3.2 24.2-2.8 35.79 2.65a44.58 44.58 0 019.2 5.83c1.57 1.28 1.63 1.87.54 3.56q-3.69 5.68-7.37 11.39c-1.26 2-1.65 2.08-3.58.81-5-3.31-10.18-6.29-16.15-7.55-3.87-.81-7.74-1-11.48.6a5.84 5.84 0 00-3.77 6.62 5.58 5.58 0 003.39 4.52 51.87 51.87 0 0010.19 3.39c6.89 1.83 13.75 3.75 20.21 6.82a27.94 27.94 0 018.56 5.9c4.71 5 5.39 11.11 4.62 17.49-1.4 11.59-8.76 18-19.23 21.59-4.52 1.51-9.2 1.92-15.75 2.18z"/><path class="cls-2" d="M189.08 103.17V81.49c0-.52 0-1-.05-1.56a1.9 1.9 0 00-2.26-2c-2.18.08-4.36 0-6.54.11-1.5.06-2.08-.61-2.08-2v-15.9c0-1.44.64-1.93 2-1.89 2.29.06 4.58.05 6.86.06 1.6 0 2-.45 2-2 0-5.36-.05-10.71-.06-16.07 0-2.07.27-2.37 2.32-2.34 7.07.1 14.13.12 21.2 0 2.1 0 2.39.36 2.36 2.47q-.09 7.78-.08 15.59c0 1.82.62 2.42 2.46 2.42q6.24 0 12.47-.05c2 0 2.25.2 2.25 2.22v15.44c0 1.81-.28 2.1-2.08 2.1h-13c-1.69 0-2.14.43-2.14 2.11v32.91c0 5.35 3 8 8.34 7.67a27.11 27.11 0 009-2.48c1-.43 1.4-.3 1.66.84q2 8.66 4.19 17.27c.37 1.44.09 2.19-1.36 2.72-7.59 2.79-15.25 5.25-23.44 5.35-4.77.06-9.47-.52-13.77-2.77a18 18 0 01-10.21-16.18c-.25-7.42 0-14.86 0-22.29z"/><path class="cls-3" d="M273.23 100.52v39.62c0 2.51-.26 2.77-2.77 2.77H250c-2.41 0-2.73-.3-2.73-2.65V60.87c0-2.25.42-2.62 2.64-2.61h20.58c2.39 0 2.71.27 2.71 2.65z"/><path class="cls-2" d="M398.36 100.65v39.62c0 2.46-.19 2.64-2.67 2.64h-20.44c-2.51 0-2.8-.28-2.8-2.74 0-8.58.06-17.16.06-25.73q0-26.52-.06-53c0-2.93.26-3.15 3.23-3.15h20.12c2.25 0 2.56.28 2.56 2.61z"/><path class="cls-1" d="M723.09 110.27a7.29 7.29 0 01-3.54 7.87c-4.43 2.84-9.14 4.47-14.48 3-3.11-.87-5.23-2.74-5.86-6a7.65 7.65 0 013-7.71c3.48-2.9 7.57-3.48 11.88-3.05a61.69 61.69 0 016.29 1.08c2.22.45 2.61 1 2.7 3.28.03.62.01 1.26.01 1.53z"/></g></g></g></svg>