<svg xmlns="http://www.w3.org/2000/svg" viewBox="0 0 42.43 50.44"><g id="Layer_2" data-name="Layer 2"><path d="M42.43 19.94v2.5A22.87 22.87 0 0141.32 28a2.28 2.28 0 01-.37.84c-.2-.73-.38-1.41-.56-2.09l-.3-1.24c-.13-.51-.28-.64-.79-.7h-.06c-.8-.11-1-.35-1.07-1.16-.07-1.15-.06-2.29-.09-3.44a9.4 9.4 0 00-.66-3.67A6.18 6.18 0 0033 12.92 14.76 14.76 0 0022.75 14c-.14.07-.31.26-.44.14s0-.32 0-.48c.21-.7.21-.71-.53-.69l-4.42.11c-.66 0-.76.11-.93.75-.75 2.86-1.49 5.73-2.23 8.59-.05.2-.12.4-.18.61a.46.46 0 01-.26-.37q-1.52-4.38-3-8.78c-.2-.58-.37-.67-1-.62-1.66.15-3.33.28-5 .42-.46 0-.46 0-.28.46l4.97 13.1c.4 1 .79 2.08 1.18 3.13a2.13 2.13 0 01-2 2.94 6.63 6.63 0 01-2.1-.31c-.45-.14-.54-.08-.54.4v2.5a3.12 3.12 0 01-.7-.65 21.07 21.07 0 01-4.81-9.62 20.55 20.55 0 011.82-14A20.83 20.83 0 0117.12.37c.75-.16 1.52-.19 2.27-.37h3.7A21.6 21.6 0 0134 4.24a21.07 21.07 0 018 12.46 29.35 29.35 0 01.43 3.24zm-20.91-3.26l-3 10.86c-.55 2-1 3.95-1.69 5.87a7.64 7.64 0 01-6.48 5.27c-.41.07-.84.07-1.31.11l.37.33 11.93 11c.51.47.6.46 1.07 0q5.61-6 11.23-12c2.16-2.37 4.36-4.68 6.36-7.2.09-.12.19-.22.28-.34s.1-.17 0-.25-.15 0-.22 0l-.77.08a28.64 28.64 0 01-3.07.24A3 3 0 0133 28c0-.11 0-.25-.16-.28s-.18.12-.24.19a7.18 7.18 0 01-7.29 2.73 5.47 5.47 0 01-4.56-4.31 5.33 5.33 0 012.29-5.73 8.58 8.58 0 014.84-1.51 9 9 0 013.52.47c.1 0 .24.14.27-.09A2.19 2.19 0 0030 16.89a6.54 6.54 0 00-2.25-.09 9.24 9.24 0 00-4 1.56c-.62.4-.62.4-1-.28l-1.06-2.15c-.05.32-.12.53-.17.75zm10.28 6.8c0-.5-.11-.61-.59-.71s-.9-.18-1.36-.23a3.3 3.3 0 00-2.57.66 1.65 1.65 0 00-.65 1.67 1.61 1.61 0 001.27 1.3 3.73 3.73 0 003.1-.65 1.57 1.57 0 00.77-1.7z" fill="#fec001" id="Layer_1-2" data-name="Layer 1"/></g></svg>